<svg 
	version="1.0"
  xmlns="http://www.w3.org/2000/svg"
  width="300.000000pt"
  height="193.000000pt"
  viewBox="0 0 300.000000 193.000000"
  preserveAspectRatio="xMidYMid meet">
  <g 
    transform="translate(0.000000,193.000000) scale(0.050000,-0.050000)"
    fill="#d05a30"
    stroke="none">
  <path d="M1930 3128 c-408 -91 -757 -398 -600 -528 41 -34 39 -43 -33 -132
    -157 -195 -170 -349 -42 -491 l71 -79 -33 -70 c-87 -183 10 -388 185 -388 57
    0 67 -29 40 -118 -52 -173 115 -355 339 -369 57 -3 106 -10 110 -14 3 -5 26
    -50 50 -100 85 -180 267 -226 460 -117 l110 62 77 -83 c170 -184 443 -192 612
    -18 84 87 106 92 181 39 190 -135 433 -86 527 108 48 98 53 101 218 119 169
    20 238 101 238 281 0 123 14 147 102 170 181 49 243 195 157 372 l-45 94 53
    39 c125 91 154 311 62 469 -52 88 -50 116 15 162 156 113 -216 459 -604 561
    -386 102 -725 48 -1049 -167 -134 -89 -172 -88 -276 7 -204 187 -589 266 -925
    191z m558 -189 c345 -129 493 -464 347 -784 -176 -384 -735 -347 -735 48 0
    164 131 297 292 297 177 0 194 -126 23 -170 -219 -55 -223 -258 -5 -253 352 7
    449 473 136 656 -238 140 -589 134 -871 -13 -175 -91 -249 -68 -142 43 193
    202 657 288 955 176z m1564 1 c326 -84 648 -288 550 -349 -10 -6 -99 29 -197
    77 -593 295 -1147 135 -1145 -330 1 -244 380 -360 450 -138 32 100 -90 228
    -155 163 -36 -36 -95 -28 -95 14 0 97 164 149 280 89 171 -88 212 -288 89
    -425 -197 -218 -549 -178 -678 78 -261 514 256 985 901 821z m-1904 -292 c55
    -21 37 -41 -133 -149 -91 -57 -218 -146 -282 -197 -253 -199 -286 -213 -356
    -149 -151 136 228 428 633 487 55 8 102 16 103 18 2 1 18 -3 35 -10z m1877
    -27 c471 -104 767 -344 622 -504 -62 -69 -126 -39 -407 194 -83 69 -207 162
    -275 208 -69 45 -125 90 -125 98 0 29 26 44 59 34 17 -5 74 -19 126 -30z
    m-2126 -500 c111 -207 -299 -646 -449 -481 -73 80 63 320 257 453 111 76 163
    84 192 28z m2351 -38 c314 -143 443 -643 139 -543 -76 26 -369 389 -369 459 0
    95 114 137 230 84z m-1191 -212 c183 -295 205 -940 38 -1080 -214 -180 -398
    111 -338 533 71 503 192 723 300 547z m895 -90 c136 -83 325 -382 326 -514 0
    -126 -120 -191 -237 -128 -41 21 -303 514 -303 568 0 86 124 129 214 74z
    m-1831 -14 c70 -63 27 -286 -99 -517 -85 -155 -198 -179 -317 -67 -156 146
    258 727 416 584z m519 -82 c62 -163 -83 -675 -225 -794 -113 -95 -277 -37
    -277 98 0 364 411 934 502 696z m860 -20 c159 -133 358 -566 325 -705 -43
    -176 -250 -174 -354 4 -108 184 -198 695 -131 738 48 30 93 20 160 -37z"/>
  </g>
</svg>
